# xmcd
#
# Track frame offsets: 
#        150
#        13823
#        29576
#        41828
#        56173
#        68945
#        82014
#        93677
#        105725
#        116567
#        128708
#        140846
#        154865
#        168271
#        181769
#        193270
#        204593
#        215333
#        228230
#        241772
#        253362
#        264598
#        276818
#        290441
#        303620
#        316766
#        327555
#        341598
#
# Disc length: 4705 seconds
#
# Revision: 1
# Processed by: cddbd v1.5.2PL0 Copyright (c) Steve Scherf et al.
# Submitted via: ExactAudioCopy v0.90b4
#
DISCID=b2125f1c
DTITLE=Various Artist - Los Angeles era 40's-50's 
DYEAR=1940
DGENRE=R&B
TTITLE0=T-Bone walker - play old down home ,1947
TTITLE1=Cecil Gant - blues in L.A.
TTITLE2=Cecil Gant - I wonder
TTITLE3=Cecil Gant - special delivery ,1945
TTITLE4=Cecil Gant - midnight on central avenue ,1945
TTITLE5=Jimmy Liggins - night life boogie ,1947
TTITLE6=Roy Milton - L.A. hop
TTITLE7=Roy Milton and solid senders - train blues
TTITLE8=Jimmy Liggins and honeydrippers - train blues ,1951
TTITLE9=Jimmy Liggins and drops of joy - railroad blues
TTITLE10=Joe Liggins and honeydrippers - don't miss that  train (wynona 
TTITLE10=carr)
TTITLE11=Charles Brown - black night
TTITLE12=Jimmy Liggins - drunk hour blues
TTITLE13=Pee wee crayton - answer to blues after hours ,1950
TTITLE14=Joe Liggins - whiskey, gin and wine ,1951
TTITLE15=Jimmy Liggins - drunk ,1953
TTITLE16=Jimmy Liggins - ain't drunk
TTITLE17=Jimmy Liggins - cloudy day blues ,1951 (w. maxwell davis, sax
TTITLE17=)
TTITLE18=Pee wee crayton - When it rains, it pours ,1951 (w. maxwell d
TTITLE18=avis orch.)
TTITLE19=Jimmy McCraklin - rainy wheather blues (w. Robert Kelton, gtr
TTITLE19=) ,1949
TTITLE20=Big Joe Turner - rainy wheather blues (w. maxwell davis orch.
TTITLE20=) ,1941 
TTITLE21=Gene Phillips - it's rainin'
TTITLE22=Candy Rovens and joe liggins' honeydrippers - ¿¿¿
TTITLE23=Lowell Fullson - cold hearted woman ,1949
TTITLE24=Cecil Gant - hit that jeep jack ,'44 or '45
TTITLE25=Cecil Gant - wake up!, Cecil, wake up!
TTITLE26=Floyd Dixon - driftin' blues (w. Tiny Webb) ,1949
TTITLE27=Pee Wee Crayton - cool evenin' ,'50's
EXTD=
EXTT0=
EXTT1=
EXTT2=
EXTT3=
EXTT4=
EXTT5=
EXTT6=
EXTT7=
EXTT8=
EXTT9=
EXTT10=
EXTT11=
EXTT12=
EXTT13=
EXTT14=
EXTT15=
EXTT16=
EXTT17=
EXTT18=
EXTT19=
EXTT20=
EXTT21=
EXTT22=
EXTT23=
EXTT24=
EXTT25=
EXTT26=
EXTT27=
PLAYORDER=
